<svg width="163.819" height="36.011" viewBox="0 0 163.819 36.011" xmlns="http://www.w3.org/2000/svg">
    <g id="svgGroup" stroke-linecap="round" fill-rule="nonzero" font-size="9pt" stroke="white" stroke-width="0.25mm"
       fill="black" style="stroke:white;stroke-width:0.25mm;fill:">
        <path d="M 142.798 31.201 L 159.009 31.201 L 159.009 25.171 L 147.607 25.171 A 4.703 4.703 0 0 1 145.728 24.792 Q 144.849 24.414 144.202 23.767 Q 143.555 23.12 143.176 22.241 A 4.703 4.703 0 0 1 142.798 20.361 L 142.798 14.819 A 4.703 4.703 0 0 1 143.176 12.939 Q 143.555 12.061 144.202 11.414 Q 144.849 10.767 145.728 10.388 A 4.703 4.703 0 0 1 147.607 10.01 L 162.817 10.01 L 162.817 14.819 L 147.607 14.819 L 147.607 20.361 L 159.009 20.361 A 4.66 4.66 0 0 1 160.658 20.651 A 4.446 4.446 0 0 1 160.877 20.74 A 5.032 5.032 0 0 1 162.402 21.765 A 4.74 4.74 0 0 1 163.44 23.291 A 4.703 4.703 0 0 1 163.818 25.171 L 163.818 31.201 A 4.703 4.703 0 0 1 163.44 33.081 A 4.74 4.74 0 0 1 162.402 34.607 A 5.032 5.032 0 0 1 160.877 35.632 A 4.601 4.601 0 0 1 159.071 36.01 A 5.262 5.262 0 0 1 159.009 36.011 L 142.798 36.011 L 142.798 31.201 Z M 68.506 31.201 L 68.506 10.01 L 73.291 10.01 L 73.291 31.201 L 86.694 31.201 L 86.694 10.01 L 91.504 10.01 L 91.504 36.011 L 86.694 36.011 L 86.694 31.616 Q 86.621 32.52 86.206 33.325 Q 85.791 34.131 85.144 34.729 Q 84.497 35.327 83.667 35.669 A 4.571 4.571 0 0 1 81.909 36.011 L 73.291 36.011 A 4.643 4.643 0 0 1 71.436 35.632 Q 70.557 35.254 69.91 34.607 Q 69.263 33.96 68.884 33.081 A 4.703 4.703 0 0 1 68.506 31.201 Z M 112.305 31.201 L 112.305 10.01 L 117.09 10.01 L 117.09 31.201 L 130.493 31.201 L 130.493 10.01 L 135.303 10.01 L 135.303 36.011 L 130.493 36.011 L 130.493 31.616 Q 130.42 32.52 130.005 33.325 Q 129.59 34.131 128.943 34.729 Q 128.296 35.327 127.466 35.669 A 4.571 4.571 0 0 1 125.708 36.011 L 117.09 36.011 A 4.643 4.643 0 0 1 115.234 35.632 Q 114.356 35.254 113.709 34.607 Q 113.062 33.96 112.683 33.081 A 4.703 4.703 0 0 1 112.305 31.201 Z M 55.689 14.819 L 43.286 14.819 L 43.286 31.201 L 55.689 31.201 L 55.689 26.807 L 60.498 26.807 L 60.498 31.201 A 4.703 4.703 0 0 1 60.12 33.081 Q 59.741 33.96 59.094 34.607 Q 58.447 35.254 57.568 35.632 A 4.703 4.703 0 0 1 55.689 36.011 L 43.286 36.011 A 4.643 4.643 0 0 1 41.431 35.632 Q 40.552 35.254 39.905 34.607 Q 39.258 33.96 38.879 33.081 A 4.703 4.703 0 0 1 38.501 31.201 L 38.501 14.819 A 4.703 4.703 0 0 1 38.879 12.939 Q 39.258 12.061 39.905 11.414 Q 40.552 10.767 41.431 10.388 A 4.643 4.643 0 0 1 43.286 10.01 L 55.689 10.01 A 4.703 4.703 0 0 1 57.568 10.388 Q 58.447 10.767 59.094 11.414 Q 59.741 12.061 60.12 12.939 A 4.703 4.703 0 0 1 60.498 14.819 L 60.498 19.214 L 55.689 19.214 L 55.689 14.819 Z M 30.005 6.006 L 30.005 31.006 A 4.894 4.894 0 0 1 29.614 32.947 Q 29.224 33.862 28.54 34.546 Q 27.857 35.229 26.941 35.62 A 4.894 4.894 0 0 1 25 36.011 L 5.005 36.011 A 4.894 4.894 0 0 1 3.064 35.62 Q 2.149 35.229 1.465 34.546 Q 0.781 33.862 0.391 32.947 A 4.894 4.894 0 0 1 0 31.006 L 0 6.006 A 4.894 4.894 0 0 1 0.391 4.065 Q 0.781 3.149 1.465 2.478 Q 2.149 1.807 3.064 1.404 Q 3.98 1.001 5.005 1.001 L 25 1.001 Q 26.025 1.001 26.941 1.404 Q 27.857 1.807 28.54 2.478 Q 29.224 3.149 29.614 4.065 A 4.894 4.894 0 0 1 30.005 6.006 Z M 25 6.006 L 5.005 6.006 L 5.005 31.006 L 25 31.006 L 25 6.006 Z M 99.512 0 L 104.297 0 L 104.297 36.011 L 99.512 36.011 L 99.512 0 Z"
              vector-effect="non-scaling-stroke"/>
    </g>
</svg>