<?xml version="1.0" standalone="no"?>
<!DOCTYPE svg PUBLIC "-//W3C//DTD SVG 20010904//EN"
 "http://www.w3.org/TR/2001/REC-SVG-20010904/DTD/svg10.dtd">
<svg version="1.0" xmlns="http://www.w3.org/2000/svg"
 width="564.000000pt" height="406.000000pt" viewBox="0 0 564.000000 406.000000"
 preserveAspectRatio="xMidYMid meet">

<g transform="translate(0.000000,406.000000) scale(0.100000,-0.100000)"
fill="#000000" stroke="none">
<path d="M1477 3453 c-4 -3 -7 -626 -7 -1383 0 -1057 3 -1379 12 -1388 19 -19
2671 -17 2687 2 8 10 10 381 9 1392 l-3 1379 -1346 3 c-740 1 -1349 -1 -1352
-5z m731 -320 c21 -40 9 -43 -194 -43 l-194 0 0 30 0 30 190 0 c170 0 190 -2
198 -17z m532 7 c19 -6 46 -19 60 -30 l25 -20 -278 0 c-238 0 -278 2 -283 15
-4 8 -4 22 0 30 4 13 39 15 223 15 120 0 234 -5 253 -10z m506 2 c6 -4 14 -17
18 -29 l7 -23 -166 0 c-138 0 -167 3 -171 15 -4 8 -4 22 0 30 4 12 31 15 153
15 81 0 153 -4 159 -8z m579 -22 l0 -25 -162 -3 c-152 -2 -163 -1 -163 16 0
38 18 43 175 40 l150 -3 0 -25z m-1615 -110 l0 -30 -195 0 -195 0 0 30 0 30
195 0 195 0 0 -30z m669 8 c5 -13 7 -26 4 -30 -2 -5 -141 -8 -308 -8 -294 0
-304 1 -310 20 -3 11 -3 24 0 30 4 6 115 10 306 10 l300 0 8 -22z m415 6 c17
-44 15 -44 -174 -44 -151 0 -182 2 -186 15 -4 8 -4 22 0 30 8 23 351 22 360
-1z m531 -14 l0 -25 -182 -3 c-171 -2 -183 -1 -183 16 0 39 17 43 195 40 l170
-3 0 -25z m-1727 -107 c-3 -28 -3 -28 -83 -28 -80 0 -80 0 -83 28 l-3 27 86 0
86 0 -3 -27z m450 0 c-3 -27 -4 -28 -78 -31 -60 -2 -77 0 -87 13 -25 35 -6 45
84 45 l84 0 -3 -27z m342 2 c0 -29 -33 -38 -120 -33 -52 3 -55 5 -58 31 l-3
27 90 0 c90 0 91 0 91 -25z m445 5 c3 -11 3 -24 0 -30 -4 -6 -61 -10 -140 -10
-125 0 -135 1 -145 20 -6 11 -8 25 -5 30 4 6 65 10 145 10 130 0 139 -1 145
-20z m383 -7 l-3 -28 -139 -3 c-77 -1 -144 2 -149 7 -5 5 -6 18 -2 30 6 20 13
21 151 21 l145 0 -3 -27z m-1620 -105 l3 -28 -85 0 c-83 0 -86 1 -86 23 0 13
3 27 7 31 4 4 41 5 83 4 74 -3 75 -4 78 -30z m747 26 c14 -6 13 -9 -6 -30 -22
-24 -24 -24 -241 -24 -194 0 -219 2 -225 16 -14 38 20 44 243 44 117 0 220 -3
229 -6z m519 -10 c15 -14 17 -14 32 0 12 13 41 16 154 16 76 0 145 -3 154 -6
9 -3 16 -17 16 -30 l0 -24 -334 0 c-299 0 -335 2 -340 16 -14 37 10 44 160 44
116 0 145 -3 158 -16z m-1264 -124 l0 -30 -85 0 c-82 0 -85 1 -85 23 0 13 3
27 7 30 3 4 42 7 85 7 l78 0 0 -30z m730 10 c11 -11 20 -24 20 -30 0 -6 -85
-10 -235 -10 l-235 0 0 23 c0 13 3 27 7 30 3 4 100 7 215 7 195 0 209 -1 228
-20z m385 -10 c0 -24 -2 -25 -82 -28 l-83 -3 0 31 0 31 83 -3 c80 -3 82 -4 82
-28z m293 3 l-3 -28 -117 -3 c-109 -2 -118 -1 -128 18 -6 11 -8 25 -5 30 4 6
60 10 131 10 l125 0 -3 -27z m207 -3 c0 -24 -2 -25 -82 -28 l-83 -3 0 31 0 31
83 -3 c80 -3 82 -4 82 -28z m-1617 -107 c-3 -28 -3 -28 -83 -28 -80 0 -80 0
-83 28 l-3 27 86 0 86 0 -3 -27z m450 0 c-3 -28 -3 -28 -83 -28 -80 0 -80 0
-83 28 l-3 27 86 0 86 0 -3 -27z m337 -3 c0 -25 -1 -25 -85 -25 l-85 0 -3 28
-3 28 88 -3 c86 -3 88 -3 88 -28z m330 0 c0 -25 -1 -25 -80 -25 l-80 0 -3 28
-3 28 83 -3 c81 -3 83 -4 83 -28z m259 8 c-10 -33 -22 -38 -91 -38 -63 0 -93
15 -93 46 0 11 19 14 96 14 94 0 95 0 88 -22z m241 -8 c0 -25 -1 -25 -80 -25
l-80 0 -3 28 -3 28 83 -3 c81 -3 83 -4 83 -28z m-1507 -102 l3 -28 -195 0
-196 0 0 24 c0 13 6 27 13 29 6 3 93 5 192 4 l180 -2 3 -27z m668 19 c5 -4 3
-16 -2 -25 -10 -15 -41 -17 -308 -20 -268 -2 -297 -1 -303 14 -4 11 1 22 13
31 16 12 71 14 306 11 157 -2 290 -7 294 -11z m334 -2 c7 -8 10 -22 6 -30 -4
-12 -29 -15 -140 -15 -140 0 -154 4 -134 43 8 15 25 17 132 17 97 0 126 -3
136 -15z m229 -1 c6 -5 -20 -34 -41 -45 -14 -8 -26 -6 -44 6 -28 18 -31 41 -6
48 17 5 83 -1 91 -9z m389 -16 l3 -28 -140 0 -141 0 0 23 c0 13 3 27 7 31 4 3
66 5 137 4 l131 -3 3 -27z m-1616 -95 c11 -41 4 -43 -193 -43 -159 0 -191 2
-195 15 -4 8 -4 22 0 30 4 13 36 15 195 15 171 0 189 -2 193 -17z m602 6 c-3
-6 -25 -20 -48 -30 -36 -16 -68 -19 -269 -19 -193 0 -228 2 -233 15 -4 8 -4
22 0 30 5 13 45 15 281 15 199 0 274 -3 269 -11z m401 -19 l0 -25 -134 -3
c-140 -3 -154 1 -144 39 5 18 15 19 142 17 l136 -3 0 -25z m183 5 c-6 -14 -15
-25 -20 -25 -4 0 -8 11 -8 25 0 18 5 25 20 25 17 0 18 -3 8 -25z m432 -5 l0
-30 -140 0 -140 0 0 30 0 30 140 0 140 0 0 -30z m-1515 -567 c121 -65 162
-189 152 -463 -8 -221 -46 -319 -150 -376 l-52 -29 -195 0 -195 0 -3 435 c-1
239 0 441 3 448 4 11 45 13 202 10 180 -3 202 -5 238 -25z m716 -5 c66 -33 95
-78 105 -161 9 -78 -10 -140 -58 -190 -21 -22 -35 -43 -31 -47 5 -3 25 -19 47
-34 50 -38 66 -78 66 -173 -1 -117 -49 -199 -140 -236 -49 -21 -414 -35 -435
-17 -13 11 -15 72 -15 445 0 237 3 435 7 439 4 4 95 6 203 4 189 -3 197 -4
251 -30z m626 -6 c83 -43 118 -120 111 -241 -7 -110 -37 -163 -160 -281 -55
-52 -113 -114 -130 -137 l-29 -43 154 0 c121 0 157 -3 166 -14 7 -9 11 -40 9
-78 l-3 -63 -272 -3 -273 -2 -6 24 c-8 33 11 120 40 181 28 59 81 121 194 230
104 99 116 120 116 213 1 66 -2 76 -23 93 -31 25 -74 24 -106 -3 -20 -18 -27
-36 -33 -83 l-7 -60 -90 0 -90 0 -3 38 c-6 65 24 144 72 191 54 54 94 66 221
62 80 -2 108 -6 142 -24z"/>
<path d="M2060 1398 c0 -161 4 -299 9 -307 15 -23 127 -9 157 20 37 35 44 79
44 274 0 168 -2 184 -22 225 -26 52 -50 65 -130 75 l-58 6 0 -293z"/>
<path d="M2770 1574 l0 -106 60 4 c70 5 104 30 115 84 8 43 -17 97 -51 113
-14 6 -47 11 -74 11 l-50 0 0 -106z"/>
<path d="M2770 1200 l0 -120 43 0 c60 0 114 17 132 43 10 14 15 44 15 85 0 53
-4 67 -25 87 -21 22 -33 25 -95 25 l-70 0 0 -120z"/>
</g>
</svg>
