<svg width="11" height="9" viewBox="0 0 11 9" fill="none" xmlns="http://www.w3.org/2000/svg">
<path d="M10.5488 1.33594H6.57422C6.3959 1.33594 6.25195 1.21816 6.25195 1.07227V0.369141C6.25195 0.223242 6.3959 0.105469 6.57422 0.105469H10.5488C10.7271 0.105469 10.8711 0.223242 10.8711 0.369141V1.07227C10.8711 1.21816 10.7271 1.33594 10.5488 1.33594ZM10.5488 6.37559H6.57422C6.3959 6.37559 6.25195 6.25781 6.25195 6.11191V5.40879C6.25195 5.26289 6.3959 5.14512 6.57422 5.14512H10.5488C10.7271 5.14512 10.8711 5.26289 10.8711 5.40879V6.11191C10.8711 6.25781 10.7271 6.37559 10.5488 6.37559ZM10.5488 3.85488H6.57422C6.3959 3.85488 6.25195 3.73711 6.25195 3.59121V2.88809C6.25195 2.74219 6.3959 2.62441 6.57422 2.62441H10.5488C10.7271 2.62441 10.8711 2.74219 10.8711 2.88809V3.59121C10.8711 3.73711 10.7271 3.85488 10.5488 3.85488ZM10.5488 8.89453H6.57422C6.3959 8.89453 6.25195 8.77676 6.25195 8.63086V7.92773C6.25195 7.78184 6.3959 7.66406 6.57422 7.66406H10.5488C10.7271 7.66406 10.8711 7.78184 10.8711 7.92773V8.63086C10.8711 8.77676 10.7271 8.89453 10.5488 8.89453ZM4.42578 1.33594H0.451172C0.272852 1.33594 0.128906 1.21816 0.128906 1.07227V0.369141C0.128906 0.223242 0.272852 0.105469 0.451172 0.105469H4.42578C4.6041 0.105469 4.74805 0.223242 4.74805 0.369141V1.07227C4.74805 1.21816 4.6041 1.33594 4.42578 1.33594ZM4.42578 6.37559H0.451172C0.272852 6.37559 0.128906 6.25781 0.128906 6.11191V5.40879C0.128906 5.26289 0.272852 5.14512 0.451172 5.14512H4.42578C4.6041 5.14512 4.74805 5.26289 4.74805 5.40879V6.11191C4.74805 6.25781 4.6041 6.37559 4.42578 6.37559ZM4.42578 3.85488H0.451172C0.272852 3.85488 0.128906 3.73711 0.128906 3.59121V2.88809C0.128906 2.74219 0.272852 2.62441 0.451172 2.62441H4.42578C4.6041 2.62441 4.74805 2.74219 4.74805 2.88809V3.59121C4.74805 3.73711 4.6041 3.85488 4.42578 3.85488ZM4.42578 8.89453H0.451172C0.272852 8.89453 0.128906 8.77676 0.128906 8.63086V7.92773C0.128906 7.78184 0.272852 7.66406 0.451172 7.66406H4.42578C4.6041 7.66406 4.74805 7.78184 4.74805 7.92773V8.63086C4.74805 8.77676 4.6041 8.89453 4.42578 8.89453Z" fill="#444444"/>
</svg>
