<svg width="195.8" height="70.801" viewBox="0 0 195.8 70.801" xmlns="http://www.w3.org/2000/svg">
    <g id="svgGroup" stroke-linecap="round" fill-rule="evenodd" font-size="9pt" stroke="black" stroke-width="0.25mm"
       fill="black" style="stroke:white;stroke-width:0.25mm;fill:white">
        <path d="M 33.2 70 L 8.2 70 L 8.2 0 L 33.2 0 A 38.324 38.324 0 0 1 41.309 0.829 A 32.22 32.22 0 0 1 46.35 2.35 Q 52.3 4.7 56.6 9.2 A 29.735 29.735 0 0 1 62.085 17.358 A 35.885 35.885 0 0 1 63.25 20.2 A 38.469 38.469 0 0 1 65.15 28.082 A 51.03 51.03 0 0 1 65.6 35 Q 65.6 43.3 63.25 49.8 A 32.982 32.982 0 0 1 59.662 56.98 A 28.387 28.387 0 0 1 56.6 60.8 Q 52.3 65.3 46.35 67.65 A 33.736 33.736 0 0 1 37.151 69.815 A 41.121 41.121 0 0 1 33.2 70 Z M 9.4 1 L 9.4 69 L 33.2 69 Q 43.1 69 50.05 64.75 Q 57 60.5 60.65 52.85 Q 64.3 45.2 64.3 35 A 49.288 49.288 0 0 0 63.592 26.436 A 35.559 35.559 0 0 0 60.6 17 Q 56.9 9.4 49.95 5.2 A 28.516 28.516 0 0 0 40.285 1.616 A 39.006 39.006 0 0 0 33.2 1 L 9.4 1 Z M 128.6 60.7 L 128.6 24.1 L 120.5 24.1 Q 120.177 24.1 120.017 24.003 A 0.359 0.359 0 0 1 119.95 23.95 A 0.523 0.523 0 0 1 119.841 23.796 A 0.47 0.47 0 0 1 119.8 23.6 L 119.8 23.3 L 128.6 23.1 L 129 3.4 A 1.452 1.452 0 0 1 129.019 3.154 Q 129.098 2.7 129.5 2.7 L 129.8 2.7 L 129.8 23.1 L 146.5 23.1 L 146.5 24.1 L 129.8 24.1 L 129.8 60.7 Q 129.8 63.683 130.746 65.678 A 6.651 6.651 0 0 0 132.05 67.55 Q 134.3 69.8 137.8 69.8 Q 139.6 69.8 141.55 68.75 Q 143.5 67.7 145 66.7 A 23.044 23.044 0 0 1 145.524 66.361 Q 146.575 65.7 146.9 65.7 Q 147.1 65.7 147.3 65.9 L 147.5 66.1 Q 146.1 68.1 143.25 69.45 A 15.09 15.09 0 0 1 140.676 70.408 A 11.159 11.159 0 0 1 137.8 70.8 A 12.713 12.713 0 0 1 135.062 70.523 Q 132.658 69.993 131.05 68.45 Q 129.264 66.737 128.78 63.403 A 18.867 18.867 0 0 1 128.6 60.7 Z M 106.4 43.9 L 106.4 37.6 Q 106.4 29.9 103.15 25.55 A 10.409 10.409 0 0 0 97.026 21.631 A 16.774 16.774 0 0 0 93.1 21.2 A 19.862 19.862 0 0 0 89.269 21.558 A 16.991 16.991 0 0 0 87.35 22.05 Q 84.7 22.9 82.4 24.45 A 33.118 33.118 0 0 0 79.006 27.085 A 38.164 38.164 0 0 0 77.9 28.1 Q 77.7 28.3 77.45 28.4 A 0.482 0.482 0 0 1 77.363 28.426 Q 77.165 28.465 77 28.3 L 76.7 28 A 33.02 33.02 0 0 1 80.304 24.696 A 24.797 24.797 0 0 1 84.15 22.2 A 17.563 17.563 0 0 1 89.669 20.448 A 22.992 22.992 0 0 1 93.1 20.2 A 20.327 20.327 0 0 1 96.52 20.472 Q 98.444 20.8 100.007 21.527 A 10.946 10.946 0 0 1 101.4 22.3 A 11.911 11.911 0 0 1 105.698 27.354 A 14.93 14.93 0 0 1 106.1 28.3 A 21.245 21.245 0 0 1 107.201 32.43 Q 107.525 34.369 107.586 36.57 A 37.345 37.345 0 0 1 107.6 37.6 L 107.6 70 L 107.4 70 A 1.248 1.248 0 0 1 107.208 69.987 Q 107.111 69.972 107.036 69.94 A 0.437 0.437 0 0 1 106.85 69.8 Q 106.744 69.659 106.713 69.417 A 1.708 1.708 0 0 1 106.7 69.2 L 106.4 61.2 A 43.912 43.912 0 0 1 101.717 65.475 A 34.644 34.644 0 0 1 97.7 68.2 A 18.688 18.688 0 0 1 92.049 70.294 Q 89.724 70.769 87.057 70.798 A 32.09 32.09 0 0 1 86.7 70.8 Q 83.5 70.8 80.6 69.4 Q 77.7 68 75.95 65.25 A 10.875 10.875 0 0 1 74.489 61.544 A 15.249 15.249 0 0 1 74.2 58.5 Q 74.2 55.2 76.15 52.55 A 12.145 12.145 0 0 1 78.429 50.231 Q 79.975 49.01 82.1 48 Q 85.048 46.64 89.224 45.708 A 60.405 60.405 0 0 1 92.05 45.15 A 75.943 75.943 0 0 1 97.555 44.416 Q 101.602 44.016 106.4 43.9 Z M 186.4 43.9 L 186.4 37.6 Q 186.4 29.9 183.15 25.55 A 10.409 10.409 0 0 0 177.026 21.631 A 16.774 16.774 0 0 0 173.1 21.2 A 19.862 19.862 0 0 0 169.269 21.558 A 16.991 16.991 0 0 0 167.35 22.05 Q 164.7 22.9 162.4 24.45 A 33.118 33.118 0 0 0 159.006 27.085 A 38.164 38.164 0 0 0 157.9 28.1 Q 157.7 28.3 157.45 28.4 A 0.482 0.482 0 0 1 157.363 28.426 Q 157.165 28.465 157 28.3 L 156.7 28 A 33.02 33.02 0 0 1 160.304 24.696 A 24.797 24.797 0 0 1 164.15 22.2 A 17.563 17.563 0 0 1 169.669 20.448 A 22.992 22.992 0 0 1 173.1 20.2 A 20.327 20.327 0 0 1 176.52 20.472 Q 178.444 20.8 180.007 21.527 A 10.946 10.946 0 0 1 181.4 22.3 A 11.911 11.911 0 0 1 185.698 27.354 A 14.93 14.93 0 0 1 186.1 28.3 A 21.245 21.245 0 0 1 187.201 32.43 Q 187.525 34.369 187.586 36.57 A 37.345 37.345 0 0 1 187.6 37.6 L 187.6 70 L 187.4 70 A 1.248 1.248 0 0 1 187.208 69.987 Q 187.111 69.972 187.036 69.94 A 0.437 0.437 0 0 1 186.85 69.8 Q 186.744 69.659 186.713 69.417 A 1.708 1.708 0 0 1 186.7 69.2 L 186.4 61.2 A 43.912 43.912 0 0 1 181.717 65.475 A 34.644 34.644 0 0 1 177.7 68.2 A 18.688 18.688 0 0 1 172.049 70.294 Q 169.724 70.769 167.057 70.798 A 32.09 32.09 0 0 1 166.7 70.8 Q 163.5 70.8 160.6 69.4 Q 157.7 68 155.95 65.25 A 10.875 10.875 0 0 1 154.489 61.544 A 15.249 15.249 0 0 1 154.2 58.5 Q 154.2 55.2 156.15 52.55 A 12.145 12.145 0 0 1 158.429 50.231 Q 159.975 49.01 162.1 48 Q 165.048 46.64 169.224 45.708 A 60.405 60.405 0 0 1 172.05 45.15 A 75.943 75.943 0 0 1 177.555 44.416 Q 181.602 44.016 186.4 43.9 Z M 106.4 60 L 106.4 44.9 Q 100.7 45.1 95.2 45.8 A 61.633 61.633 0 0 0 89.329 46.825 A 48.503 48.503 0 0 0 85.2 47.95 A 22.517 22.517 0 0 0 81.849 49.318 Q 79.989 50.27 78.584 51.505 A 13.307 13.307 0 0 0 78.05 52 A 8.701 8.701 0 0 0 75.401 58.318 A 11.347 11.347 0 0 0 75.4 58.5 A 14.182 14.182 0 0 0 75.784 61.902 A 9.314 9.314 0 0 0 78.8 66.9 Q 82.2 69.8 86.7 69.8 A 26.732 26.732 0 0 0 91.463 69.4 Q 94.228 68.899 96.466 67.771 A 15.259 15.259 0 0 0 97.9 66.95 A 50.168 50.168 0 0 0 104.266 62.031 A 58.702 58.702 0 0 0 106.4 60 Z M 186.4 60 L 186.4 44.9 Q 180.7 45.1 175.2 45.8 A 61.633 61.633 0 0 0 169.329 46.825 A 48.503 48.503 0 0 0 165.2 47.95 A 22.517 22.517 0 0 0 161.849 49.318 Q 159.989 50.27 158.584 51.505 A 13.307 13.307 0 0 0 158.05 52 A 8.701 8.701 0 0 0 155.401 58.318 A 11.347 11.347 0 0 0 155.4 58.5 A 14.182 14.182 0 0 0 155.784 61.902 A 9.314 9.314 0 0 0 158.8 66.9 Q 162.2 69.8 166.7 69.8 A 26.732 26.732 0 0 0 171.463 69.4 Q 174.228 68.899 176.466 67.771 A 15.259 15.259 0 0 0 177.9 66.95 A 50.168 50.168 0 0 0 184.266 62.031 A 58.702 58.702 0 0 0 186.4 60 Z M 8.5 70 L 0 70 L 0 69.5 A 0.322 0.322 0 0 1 0.075 69.297 Q 0.113 69.248 0.172 69.203 A 0.84 0.84 0 0 1 0.25 69.15 A 1.34 1.34 0 0 1 0.412 69.067 Q 0.498 69.03 0.577 69.014 A 0.606 0.606 0 0 1 0.7 69 L 8.4 68.8 L 8.5 70 Z M 115.8 70 L 107.3 70 L 107.4 68.8 L 115.1 69 Q 115.255 69 115.44 69.09 A 1.436 1.436 0 0 1 115.55 69.15 A 0.768 0.768 0 0 1 115.664 69.232 Q 115.8 69.353 115.8 69.5 L 115.8 70 Z M 195.8 70 L 187.3 70 L 187.4 68.8 L 195.1 69 Q 195.255 69 195.44 69.09 A 1.436 1.436 0 0 1 195.55 69.15 A 0.768 0.768 0 0 1 195.664 69.232 Q 195.8 69.353 195.8 69.5 L 195.8 70 Z M 0 0 L 8.5 0 L 8.4 1.2 L 0.7 1 Q 0.545 1 0.36 0.911 A 1.436 1.436 0 0 1 0.25 0.85 A 0.768 0.768 0 0 1 0.136 0.768 Q 0 0.648 0 0.5 L 0 0 Z"
              vector-effect="non-scaling-stroke"/>
    </g>
</svg>