<svg width="16" height="17" viewBox="0 0 16 17" fill="none" xmlns="http://www.w3.org/2000/svg">
<path d="M0.568359 1.5C0.255359 1.5 0 1.75536 0 2.06836V2.30273V3.43164V4.06836V5.43164V7.19531C0 7.63831 0.361688 8 0.804688 8H5.69531C6.13831 8 6.5 7.63931 6.5 7.19531V5.43164V4.06836V3.43164V2.30469V2.06836C6.5 1.75536 6.24564 1.5 5.93164 1.5H5.69531H0.804688H0.568359ZM0.804688 2H5.69531C5.86331 2 6 2.13769 6 2.30469V3.43164C6 3.46964 5.96964 3.5 5.93164 3.5H0.568359C0.530359 3.5 0.5 3.46964 0.5 3.43164V2.30469C0.5 2.13769 0.636688 2 0.804688 2ZM0.568359 4H5.93164C5.96964 4 6 4.03036 6 4.06836V5.43164C6 5.46964 5.96964 5.49805 5.93164 5.49805H0.56836C0.530359 5.49805 0.5 5.46964 0.5 5.43164V4.06836C0.5 4.03036 0.530359 4 0.568359 4ZM0.5 5.98633C0.524 5.98933 0.543359 6 0.568359 6H5.93164C5.95564 6 5.976 5.98933 6 5.98633V7.19531C6 7.36231 5.86331 7.5 5.69531 7.5H0.804688C0.636688 7.5 0.5 7.36231 0.5 7.19531V5.98633ZM3 9.27148V12.9062C3 13.5092 3.4917 14 4.0957 14H7.75V13.5H4.0957C3.7677 13.5 3.5 13.2323 3.5 12.9043V9.27148H3ZM9.56836 9.5C9.25536 9.5 9 9.75536 9 10.0684V10.3027V11.4316V12.0684V13.4316V15.1953C9 15.6383 9.36169 16 9.80469 16H14.6953C15.1383 16 15.5 15.6393 15.5 15.1953V13.4316V12.0684V11.4316V10.3047V10.0684C15.5 9.75536 15.2456 9.5 14.9316 9.5H14.6953H9.80469H9.56836ZM9.80469 10H14.6953C14.8633 10 15 10.1377 15 10.3047V11.4316C15 11.4696 14.9696 11.5 14.9316 11.5H9.56836C9.53036 11.5 9.5 11.4696 9.5 11.4316V10.3047C9.5 10.1377 9.63669 10 9.80469 10ZM9.56836 12.002H14.9316C14.9696 12.002 15 12.0304 15 12.0684V13.4316C15 13.4696 14.9696 13.5 14.9316 13.5H9.56836C9.53036 13.5 9.5 13.4696 9.5 13.4316V12.0684C9.5 12.0304 9.53036 12.0019 9.56836 12.0019V12.002ZM9.5 13.9863C9.524 13.9893 9.54336 14 9.56836 14H14.9316C14.9556 14 14.976 13.9893 15 13.9863V15.1953C15 15.3623 14.8633 15.5 14.6953 15.5H9.80469C9.63669 15.5 9.5 15.3623 9.5 15.1953V13.9863Z" fill="#231F20"/>
</svg>
