<svg xmlns="http://www.w3.org/2000/svg" enableBackground="new 0 0 128 128" viewBox="0 0 128 128"><path fill="#000000" d="M104,126H24c-5.5,0-10-4.5-10-10V12c0-5.5,4.5-10,10-10h40.7c2.7,0,5.2,1,7.1,2.9l39.3,39.3     c1.9,1.9,2.9,4.4,2.9,7.1V116C114,121.5,109.5,126,104,126z M24,6c-3.3,0-6,2.7-6,6v104c0,3.3,2.7,6,6,6h80c3.3,0,6-2.7,6-6V51.3     c0-1.6-0.6-3.1-1.8-4.2L68.9,7.8C67.8,6.6,66.3,6,64.7,6H24z" class="color00b8df svgShape"></path><rect width="96" height="4" x="16" y="62" fill="#000000" class="color00b8df svgShape"></rect><rect width="96" height="4" x="16" y="82" fill="#000000" class="color00b8df svgShape"></rect><rect width="96" height="4" x="16" y="102" fill="#000000" class="color00b8df svgShape"></rect><rect width="4" height="60" x="48" y="64" fill="#000000" class="color00b8df svgShape"></rect></svg>
