<svg xmlns="http://www.w3.org/2000/svg" xmlns:xlink="http://www.w3.org/1999/xlink" version="1.1" width="940" height="788" viewBox="0 0 940 788" xml:space="preserve">
<desc>Created with Fabric.js 3.5.0</desc>
<defs>
</defs>
<rect x="0" y="0" width="100%" height="100%" fill="#ffffff"/>
<g transform="matrix(1 0 0 1 585.5669 504.4424)" style="" id="342338">
		
<path xml:space="preserve" font-family="Aldrich" font-size="272" font-style="normal" font-weight="normal" style="stroke: none; stroke-width: 1; stroke-dasharray: none; stroke-linecap: butt; stroke-dashoffset: 0; stroke-linejoin: miter; stroke-miterlimit: 4; is-custom-font: none; font-file-url: none; fill: rgb(0,0,0); fill-rule: nonzero; opacity: 1; white-space: pre;" d="M-397.40-77.78L-397.40 58.22Q-397.40 63.80-399.53 68.78Q-401.65 73.76-405.37 77.48Q-409.09 81.20-414.07 83.32Q-419.05 85.45-424.63 85.45L-424.63 85.45L-533.40 85.45Q-538.98 85.45-543.96 83.32Q-548.94 81.20-552.66 77.48Q-556.38 73.76-558.50 68.78Q-560.63 63.80-560.63 58.22L-560.63 58.22L-560.63-77.78Q-560.63-83.36-558.50-88.34Q-556.38-93.32-552.66-96.97Q-548.94-100.62-543.96-102.82Q-538.98-105.01-533.40-105.01L-533.40-105.01L-424.63-105.01Q-419.05-105.01-414.07-102.82Q-409.09-100.62-405.37-96.97Q-401.65-93.32-399.53-88.34Q-397.40-83.36-397.40-77.78L-397.40-77.78ZM-424.63-77.78L-533.40-77.78L-533.40 58.22L-424.63 58.22L-424.63-77.78ZM-257.68-29.84L-325.15-29.84L-325.15 59.28L-257.68 59.28L-257.68 35.38L-231.52 35.38L-231.52 59.28Q-231.52 64.73-233.58 69.51Q-235.64 74.29-239.16 77.81Q-242.68 81.33-247.46 83.39Q-252.24 85.45-257.68 85.45L-257.68 85.45L-325.15 85.45Q-330.47 85.45-335.25 83.39Q-340.03 81.33-343.55 77.81Q-347.07 74.29-349.13 69.51Q-351.18 64.73-351.18 59.28L-351.18 59.28L-351.18-29.84Q-351.18-35.28-349.13-40.06Q-347.07-44.84-343.55-48.36Q-340.03-51.88-335.25-53.94Q-330.47-56.00-325.15-56.00L-325.15-56.00L-257.68-56.00Q-252.24-56.00-247.46-53.94Q-242.68-51.88-239.16-48.36Q-235.64-44.84-233.58-40.06Q-231.52-35.28-231.52-29.84L-231.52-29.84L-231.52-5.93L-257.68-5.93L-257.68-29.84ZM-187.96 59.28L-187.96-56.00L-161.93-56.00L-161.93 59.28L-89.01 59.28L-89.01-56.00L-62.85-56.00L-62.85 85.45L-89.01 85.45L-89.01 61.54Q-89.41 66.45-91.67 70.84Q-93.93 75.22-97.45 78.47Q-100.97 81.73-105.48 83.59Q-110.00 85.45-115.04 85.45L-115.04 85.45L-161.93 85.45Q-167.24 85.45-172.02 83.39Q-176.80 81.33-180.32 77.81Q-183.84 74.29-185.90 69.51Q-187.96 64.73-187.96 59.28L-187.96 59.28ZM-19.29-110.45L6.75-110.45L6.75 85.45L-19.29 85.45L-19.29-110.45ZM50.31 59.28L50.31-56.00L76.34-56.00L76.34 59.28L149.25 59.28L149.25-56.00L175.42-56.00L175.42 85.45L149.25 85.45L149.25 61.54Q148.85 66.45 146.60 70.84Q144.34 75.22 140.82 78.47Q137.30 81.73 132.78 83.59Q128.27 85.45 123.22 85.45L123.22 85.45L76.34 85.45Q71.03 85.45 66.25 83.39Q61.46 81.33 57.94 77.81Q54.43 74.29 52.37 69.51Q50.31 64.73 50.31 59.28L50.31 59.28ZM216.19 59.28L304.38 59.28L304.38 26.48L242.35 26.48Q236.91 26.48 232.13 24.42Q227.35 22.36 223.83 18.84Q220.31 15.32 218.25 10.54Q216.19 5.76 216.19 0.31L216.19 0.31L216.19-29.84Q216.19-35.28 218.25-40.06Q220.31-44.84 223.83-48.36Q227.35-51.88 232.13-53.94Q236.91-56.00 242.35-56.00L242.35-56.00L325.10-56.00L325.10-29.84L242.35-29.84L242.35 0.31L304.38 0.31Q309.82 0.31 314.54 2.37Q319.25 4.43 322.84 7.95Q326.43 11.47 328.48 16.25Q330.54 21.03 330.54 26.48L330.54 26.48L330.54 59.28Q330.54 64.73 328.48 69.51Q326.43 74.29 322.84 77.81Q319.25 81.33 314.54 83.39Q309.82 85.45 304.38 85.45L304.38 85.45L216.19 85.45L216.19 59.28Z"/></g>
<g transform="matrix(1 0 0 1 374.9299 247.3976)" style="" id="479953">
		
<path xml:space="preserve" font-family="Alegreya Sans" font-size="208" font-style="normal" font-weight="bold" style="stroke: none; stroke-width: 1; stroke-dasharray: none; stroke-linecap: butt; stroke-dashoffset: 0; stroke-linejoin: miter; stroke-miterlimit: 4; is-custom-font: none; font-file-url: none; fill: rgb(0,0,0); fill-rule: nonzero; opacity: 1; white-space: pre;" d="M-294.33-69.44Q-265.21-69.44-249.61-53.22Q-234.01-36.99-234.01-6.63L-234.01-6.63Q-234.01 28.94-251.49 47.87Q-268.96 66.80-301.41 66.80L-301.41 66.80Q-311.18 66.80-324.81 66.38Q-338.43 65.97-348.21 65.34L-348.21 65.34L-346.75 25.41L-348.21-68.61L-294.33-69.44ZM-296.41 44.96Q-263.34 44.96-263.34-0.18L-263.34-0.18Q-263.34-24.72-271.35-35.85Q-279.36-46.98-296.41-46.98L-296.41-46.98Q-307.44-46.98-319.92-45.94L-319.92-45.94L-321.17 22.91L-320.54 43.50Q-305.98 44.96-296.41 44.96L-296.41 44.96ZM-178.27-33.25Q-162.25-33.25-153.21-26.07Q-144.16-18.90-144.16-6.00L-144.16-6.00Q-144.16-2.26-145.41 17.71L-145.41 17.71Q-145.61 23.53-146.03 29.67Q-146.45 35.81-146.45 40.17L-146.45 40.17Q-146.45 43.71-145.41 45.06Q-144.37 46.41-141.66 46.41L-141.66 46.41Q-139.58 46.41-136.25 45.58L-136.25 45.58L-134.17 47.25L-136.67 61.81Q-143.33 66.17-151.85 67.01L-151.85 67.01Q-158.09 66.38-162.25 62.53Q-166.41 58.69-167.87 51.82L-167.87 51.82L-169.33 51.82Q-179.73 62.85-190.75 67.21L-190.75 67.21Q-205.73 67.01-214.25 59.31Q-222.78 51.61-222.78 38.30L-222.78 38.30Q-222.78 27.90-217.48 21.97Q-212.17 16.05-201.36 13.97L-201.36 13.97L-169.53 7.93L-169.53-0.59Q-169.53-14.11-182.85-14.11L-182.85-14.11Q-189.29-14.11-196.47-11.20Q-203.65-8.29-212.59-2.05L-212.59-2.05L-214.67-3.30L-217.79-21.60Q-208.85-27.22-198.65-30.23Q-188.46-33.25-178.27-33.25L-178.27-33.25ZM-169.74 21.87L-191.79 26.65Q-195.12 27.49-196.68 29.46Q-198.24 31.44-198.24 35.39L-198.24 35.39Q-198.24 40.80-195.33 43.81Q-192.41 46.83-187.21 46.83L-187.21 46.83Q-179.10 46.83-170.16 37.26L-170.16 37.26L-169.74 21.87ZM-77.18 44.96Q-70.53 44.96-63.25 41.42L-63.25 41.42L-60.96 43.50L-63.66 59.93Q-74.27 65.34-85.29 66.59L-85.29 66.59Q-113.37 63.68-113.37 39.13L-113.37 39.13L-112.33 21.87L-112.54-13.91L-125.44-13.91L-126.48-15.36L-125.02-30.55L-112.75-30.55L-112.75-46.56L-87.58-54.67L-85.71-53.01L-86.33-30.55L-61.58-30.55L-60.75-29.09L-62.00-13.91L-86.75-13.91L-88.00 32.69Q-88.00 39.34-85.50 42.15Q-83.01 44.96-77.18 44.96L-77.18 44.96ZM-7.92-33.25Q8.10-33.25 17.15-26.07Q26.19-18.90 26.19-6.00L26.19-6.00Q26.19-2.26 24.95 17.71L24.95 17.71Q24.74 23.53 24.32 29.67Q23.91 35.81 23.91 40.17L23.91 40.17Q23.91 43.71 24.95 45.06Q25.99 46.41 28.69 46.41L28.69 46.41Q30.77 46.41 34.10 45.58L34.10 45.58L36.18 47.25L33.68 61.81Q27.03 66.17 18.50 67.01L18.50 67.01Q12.26 66.38 8.10 62.53Q3.94 58.69 2.48 51.82L2.48 51.82L1.03 51.82Q-9.37 62.85-20.40 67.21L-20.40 67.21Q-35.37 67.01-43.90 59.31Q-52.43 51.61-52.43 38.30L-52.43 38.30Q-52.43 27.90-47.13 21.97Q-41.82 16.05-31.01 13.97L-31.01 13.97L0.82 7.93L0.82-0.59Q0.82-14.11-12.49-14.11L-12.49-14.11Q-18.94-14.11-26.12-11.20Q-33.29-8.29-42.24-2.05L-42.24-2.05L-44.32-3.30L-47.44-21.60Q-38.49-27.22-28.30-30.23Q-18.11-33.25-7.92-33.25L-7.92-33.25ZM0.61 21.87L-21.44 26.65Q-24.77 27.49-26.33 29.46Q-27.89 31.44-27.89 35.39L-27.89 35.39Q-27.89 40.80-24.97 43.81Q-22.06 46.83-16.86 46.83L-16.86 46.83Q-8.75 46.83 0.19 37.26L0.19 37.26L0.61 21.87Z"/></g>
</svg>