<svg xmlns="http://www.w3.org/2000/svg" xmlns:xlink="http://www.w3.org/1999/xlink" version="1.1" width="940" height="788" viewBox="0 0 940 788" xml:space="preserve">
<desc>Created with Fabric.js 3.5.0</desc>
<defs>
</defs>
<rect x="0" y="0" width="100%" height="100%" fill="#ffffff"/>
<g transform="matrix(1 0 0 1 311.9364 353.8285)" style="" id="342338">
		
<path xml:space="preserve" font-family="Aldrich" font-size="79" font-style="normal" font-weight="normal" style="stroke: none; stroke-width: 1; stroke-dasharray: none; stroke-linecap: butt; stroke-dashoffset: 0; stroke-linejoin: miter; stroke-miterlimit: 4; is-custom-font: none; font-file-url: none; fill: rgb(0,0,0); fill-rule: nonzero; opacity: 1; white-space: pre;" d="M-115.76-22.59L-115.76 16.91Q-115.76 18.53-116.38 19.98Q-117.00 21.42-118.08 22.50Q-119.16 23.58-120.61 24.20Q-122.05 24.82-123.67 24.82L-123.67 24.82L-155.26 24.82Q-156.88 24.82-158.33 24.20Q-159.78 23.58-160.86 22.50Q-161.94 21.42-162.55 19.98Q-163.17 18.53-163.17 16.91L-163.17 16.91L-163.17-22.59Q-163.17-24.21-162.55-25.66Q-161.94-27.10-160.86-28.16Q-159.78-29.23-158.33-29.86Q-156.88-30.50-155.26-30.50L-155.26-30.50L-123.67-30.50Q-122.05-30.50-120.61-29.86Q-119.16-29.23-118.08-28.16Q-117.00-27.10-116.38-25.66Q-115.76-24.21-115.76-22.59L-115.76-22.59ZM-123.67-22.59L-155.26-22.59L-155.26 16.91L-123.67 16.91L-123.67-22.59ZM-75.18-8.67L-94.78-8.67L-94.78 17.22L-75.18 17.22L-75.18 10.27L-67.59 10.27L-67.59 17.22Q-67.59 18.80-68.18 20.19Q-68.78 21.58-69.80 22.60Q-70.83 23.62-72.21 24.22Q-73.60 24.82-75.18 24.82L-75.18 24.82L-94.78 24.82Q-96.32 24.82-97.71 24.22Q-99.10 23.62-100.12 22.60Q-101.14 21.58-101.74 20.19Q-102.34 18.80-102.34 17.22L-102.34 17.22L-102.34-8.67Q-102.34-10.25-101.74-11.64Q-101.14-13.02-100.12-14.05Q-99.10-15.07-97.71-15.67Q-96.32-16.26-94.78-16.26L-94.78-16.26L-75.18-16.26Q-73.60-16.26-72.21-15.67Q-70.83-15.07-69.80-14.05Q-68.78-13.02-68.18-11.64Q-67.59-10.25-67.59-8.67L-67.59-8.67L-67.59-1.72L-75.18-1.72L-75.18-8.67ZM-54.93 17.22L-54.93-16.26L-47.37-16.26L-47.37 17.22L-26.19 17.22L-26.19-16.26L-18.60-16.26L-18.60 24.82L-26.19 24.82L-26.19 17.87Q-26.31 19.30-26.97 20.57Q-27.62 21.85-28.64 22.79Q-29.67 23.74-30.98 24.28Q-32.29 24.82-33.76 24.82L-33.76 24.82L-47.37 24.82Q-48.92 24.82-50.30 24.22Q-51.69 23.62-52.71 22.60Q-53.74 21.58-54.33 20.19Q-54.93 18.80-54.93 17.22L-54.93 17.22ZM-5.94-32.08L1.62-32.08L1.62 24.82L-5.94 24.82L-5.94-32.08ZM14.27 17.22L14.27-16.26L21.83-16.26L21.83 17.22L43.01 17.22L43.01-16.26L50.61-16.26L50.61 24.82L43.01 24.82L43.01 17.87Q42.89 19.30 42.24 20.57Q41.58 21.85 40.56 22.79Q39.54 23.74 38.22 24.28Q36.91 24.82 35.45 24.82L35.45 24.82L21.83 24.82Q20.29 24.82 18.90 24.22Q17.51 23.62 16.49 22.60Q15.47 21.58 14.87 20.19Q14.27 18.80 14.27 17.22L14.27 17.22ZM62.45 17.22L88.06 17.22L88.06 7.69L70.05 7.69Q68.47 7.69 67.08 7.09Q65.69 6.49 64.67 5.47Q63.64 4.45 63.05 3.06Q62.45 1.67 62.45 0.09L62.45 0.09L62.45-8.67Q62.45-10.25 63.05-11.64Q63.64-13.02 64.67-14.05Q65.69-15.07 67.08-15.67Q68.47-16.26 70.05-16.26L70.05-16.26L94.08-16.26L94.08-8.67L70.05-8.67L70.05 0.09L88.06 0.09Q89.64 0.09 91.01 0.69Q92.38 1.29 93.42 2.31Q94.47 3.33 95.06 4.72Q95.66 6.11 95.66 7.69L95.66 7.69L95.66 17.22Q95.66 18.80 95.06 20.19Q94.47 21.58 93.42 22.60Q92.38 23.62 91.01 24.22Q89.64 24.82 88.06 24.82L88.06 24.82L62.45 24.82L62.45 17.22Z"/></g>
<g transform="matrix(1 0 0 1 307.8223 296.7822)" style="" id="479953">
		
<path xml:space="preserve" font-family="Alegreya Sans" font-size="44" font-style="normal" font-weight="bold" style="stroke: none; stroke-width: 1; stroke-dasharray: none; stroke-linecap: butt; stroke-dashoffset: 0; stroke-linejoin: miter; stroke-miterlimit: 4; is-custom-font: none; font-file-url: none; fill: rgb(0,0,0); fill-rule: nonzero; opacity: 1; white-space: pre;" d="M-146.95-14.69Q-140.79-14.69-137.49-11.26Q-134.19-7.83-134.19-1.40L-134.19-1.40Q-134.19 6.12-137.89 10.13Q-141.58 14.13-148.45 14.13L-148.45 14.13Q-150.51 14.13-153.40 14.04Q-156.28 13.95-158.35 13.82L-158.35 13.82L-158.04 5.37L-158.35-14.51L-146.95-14.69ZM-147.39 9.51Q-140.39 9.51-140.39-0.04L-140.39-0.04Q-140.39-5.23-142.09-7.58Q-143.78-9.94-147.39-9.94L-147.39-9.94Q-149.72-9.94-152.36-9.72L-152.36-9.72L-152.63 4.85L-152.49 9.20Q-149.41 9.51-147.39 9.51L-147.39 9.51ZM-122.40-7.03Q-119.01-7.03-117.10-5.52Q-115.18-4.00-115.18-1.27L-115.18-1.27Q-115.18-0.48-115.45 3.75L-115.45 3.75Q-115.49 4.98-115.58 6.28Q-115.67 7.57-115.67 8.50L-115.67 8.50Q-115.67 9.25-115.45 9.53Q-115.23 9.82-114.65 9.82L-114.65 9.82Q-114.21 9.82-113.51 9.64L-113.51 9.64L-113.07 9.99L-113.60 13.07Q-115.01 14.00-116.81 14.17L-116.81 14.17Q-118.13 14.04-119.01 13.23Q-119.89 12.41-120.20 10.96L-120.20 10.96L-120.51 10.96Q-122.71 13.29-125.04 14.22L-125.04 14.22Q-128.21 14.17-130.01 12.55Q-131.81 10.92-131.81 8.10L-131.81 8.10Q-131.81 5.90-130.69 4.65Q-129.57 3.39-127.28 2.95L-127.28 2.95L-120.55 1.68L-120.55-0.13Q-120.55-2.99-123.37-2.99L-123.37-2.99Q-124.73-2.99-126.25-2.37Q-127.77-1.75-129.66-0.43L-129.66-0.43L-130.10-0.70L-130.76-4.57Q-128.87-5.76-126.71-6.40Q-124.55-7.03-122.40-7.03L-122.40-7.03ZM-120.59 4.63L-125.26 5.64Q-125.96 5.81-126.29 6.23Q-126.62 6.65-126.62 7.49L-126.62 7.49Q-126.62 8.63-126.01 9.27Q-125.39 9.91-124.29 9.91L-124.29 9.91Q-122.57 9.91-120.68 7.88L-120.68 7.88L-120.59 4.63ZM-101.01 9.51Q-99.61 9.51-98.07 8.76L-98.07 8.76L-97.58 9.20L-98.15 12.68Q-100.40 13.82-102.73 14.09L-102.73 14.09Q-108.67 13.47-108.67 8.28L-108.67 8.28L-108.45 4.63L-108.49-2.94L-111.22-2.94L-111.44-3.25L-111.13-6.46L-108.54-6.46L-108.54-9.85L-103.21-11.57L-102.82-11.21L-102.95-6.46L-97.71-6.46L-97.54-6.15L-97.80-2.94L-103.04-2.94L-103.30 6.91Q-103.30 8.32-102.77 8.92Q-102.25 9.51-101.01 9.51L-101.01 9.51ZM-86.36-7.03Q-82.97-7.03-81.06-5.52Q-79.15-4.00-79.15-1.27L-79.15-1.27Q-79.15-0.48-79.41 3.75L-79.41 3.75Q-79.45 4.98-79.54 6.28Q-79.63 7.57-79.63 8.50L-79.63 8.50Q-79.63 9.25-79.41 9.53Q-79.19 9.82-78.62 9.82L-78.62 9.82Q-78.18 9.82-77.47 9.64L-77.47 9.64L-77.03 9.99L-77.56 13.07Q-78.97 14.00-80.77 14.17L-80.77 14.17Q-82.09 14.04-82.97 13.23Q-83.85 12.41-84.16 10.96L-84.16 10.96L-84.47 10.96Q-86.67 13.29-89.00 14.22L-89.00 14.22Q-92.17 14.17-93.97 12.55Q-95.78 10.92-95.78 8.10L-95.78 8.10Q-95.78 5.90-94.66 4.65Q-93.53 3.39-91.25 2.95L-91.25 2.95L-84.51 1.68L-84.51-0.13Q-84.51-2.99-87.33-2.99L-87.33-2.99Q-88.69-2.99-90.21-2.37Q-91.73-1.75-93.62-0.43L-93.62-0.43L-94.06-0.70L-94.72-4.57Q-92.83-5.76-90.67-6.40Q-88.52-7.03-86.36-7.03L-86.36-7.03ZM-84.56 4.63L-89.22 5.64Q-89.93 5.81-90.26 6.23Q-90.59 6.65-90.59 7.49L-90.59 7.49Q-90.59 8.63-89.97 9.27Q-89.35 9.91-88.25 9.91L-88.25 9.91Q-86.54 9.91-84.65 7.88L-84.65 7.88L-84.56 4.63Z"/></g>
</svg>