<svg width="81" height="94" viewBox="0 0 81 94" fill="none" xmlns="http://www.w3.org/2000/svg">
  <g clip-path="url(#clip0_1729_18380)">
    <path d="M27.0919 7.77173L0 23.4123V35.5453L27.0919 19.9038L54.1828 35.5453V23.4123L27.0919 7.77173Z" fill="#F4B400"/>
    <path d="M53.7134 85.9304L26.6215 70.2899V58.1588L53.7134 73.7994L80.8043 58.1588V70.2899L53.7134 85.9304Z" fill="#0F9D58"/>
    <path d="M0 38.8035L27.0919 23.162L37.5974 29.228L10.5064 44.8696V76.1526L0 70.0866V38.8035Z" fill="#DB4437"/>
    <path d="M67.5121 15.6405L40.4201 0L29.9137 6.06603L57.0046 21.7066V52.9896L67.5121 46.9236V15.6405Z" fill="#F4B400"/>
    <path d="M13.3853 77.9575L13.3863 46.6754L23.8927 40.6094V71.8925L50.9836 87.533L40.4772 93.6L13.3853 77.9575Z" fill="#DB4437"/>
    <path d="M80.8043 54.8995V23.6164L70.2978 17.5504V48.8325L43.2069 64.475L53.7134 70.5421L80.8043 54.8995Z" fill="#0F9D58"/>
  </g>
  <defs>
    <clipPath id="clip0_1729_18380">
      <rect width="80.8043" height="93.6" fill="white"/>
    </clipPath>
  </defs>
</svg>
